<?xml version="1.0" encoding="utf-8"?>
<!-- Generator: Adobe Illustrator 16.0.0, SVG Export Plug-In . SVG Version: 6.00 Build 0)  -->
<!DOCTYPE svg PUBLIC "-//W3C//DTD SVG 1.1//EN" "http://www.w3.org/Graphics/SVG/1.1/DTD/svg11.dtd">
<svg version="1.1" id="图层_1" xmlns="http://www.w3.org/2000/svg" xmlns:xlink="http://www.w3.org/1999/xlink" x="0px" y="0px"
	 width="200px" height="200px" viewBox="0 0 200 200" enable-background="new 0 0 200 200" xml:space="preserve">
<path fill="#3389D4" d="M200.006,177.329c0,12.524-10.153,22.678-22.678,22.678H22.67c-12.523,0-22.677-10.153-22.677-22.678V22.671
	c0-12.523,10.153-22.677,22.677-22.677h154.658c12.524,0,22.678,10.153,22.678,22.677V177.329z"/>
<path fill="#FFFFFF" d="M83.945,17.129H28.75c-6.465,0-11.719,5.254-11.719,11.719v55.195c0,6.465,5.254,11.719,11.719,11.719
	h55.195c6.465,0,11.719-5.254,11.719-11.719V28.848C95.664,22.383,90.41,17.129,83.945,17.129z M83.945,84.043H28.75V28.867
	c0,0,0.02-0.02,0-0.02h55.176c0,0,0.02,0.02,0.02,0V84.043C83.965,84.043,83.945,84.043,83.945,84.043z M171.25,17.129h-55.195
	c-6.465,0-11.719,5.254-11.719,11.719v55.195c0,6.465,5.254,11.719,11.719,11.719h55.195c6.465,0,11.719-5.254,11.719-11.719V28.848
	C182.969,22.383,177.715,17.129,171.25,17.129L171.25,17.129z M171.25,84.043h-55.195V28.867c0,0,0.02-0.02,0-0.02h55.176
	c0,0,0.02,0.02,0.02,0V84.043C171.25,84.043,171.23,84.043,171.25,84.043z M83.945,104.238H28.75
	c-6.465,0-11.719,5.254-11.719,11.719v55.195c0,6.465,5.254,11.719,11.719,11.719h55.195c6.465,0,11.719-5.254,11.719-11.719
	v-55.195C95.664,109.492,90.41,104.238,83.945,104.238z M83.945,171.152H28.75v-55.176c0,0,0.02-0.02,0-0.02h55.176
	c0,0,0.02,0.02,0.02,0V171.152C83.965,171.133,83.945,171.152,83.945,171.152z M171.25,104.238h-55.195
	c-6.465,0-11.719,5.254-11.719,11.719v55.195c0,6.465,5.254,11.719,11.719,11.719h55.195c6.465,0,11.719-5.254,11.719-11.719
	v-55.195C182.969,109.492,177.715,104.238,171.25,104.238L171.25,104.238z M171.25,171.152h-55.195v-55.176c0,0,0.02-0.02,0-0.02
	h55.176c0,0,0.02,0.02,0.02,0V171.152C171.25,171.133,171.23,171.152,171.25,171.152z"/>
</svg>
