<?xml version="1.0" standalone="no"?><!DOCTYPE svg PUBLIC "-//W3C//DTD SVG 1.1//EN" "http://www.w3.org/Graphics/SVG/1.1/DTD/svg11.dtd"><svg class="icon" width="200px" height="200.00px" viewBox="0 0 1024 1024" version="1.1" xmlns="http://www.w3.org/2000/svg"><path d="M687.4 816s23.4 125.1 12.5 145.8c-10.9 20.7-36.6 20.7-49.1 13-12.5-7.7-61.5-100.5-61.5-100.5l98.1-58.3zM300.6 608.9s-92.2 89.1-95.4 112.2c-3.2 23.1 17.8 37.7 32.5 38.5 14.7 0.8 109.1-47.3 109.1-47.3l-46.2-103.4z" fill="#f4ea2a" /><path d="M448.5 137.1c101 164.9-73.6 336.8-241 237.1-13-7.7-30.1-24.6-38-37.5C68.5 171.8 243-0.1 410.4 99.6c13 7.7 30.2 24.6 38.1 37.5z" fill="#f4ea2a" /><path d="M445.5 305.6c136.7 77.8 247.2 266.3 246.8 421.1-0.4 154.8-111.7 217.2-248.4 139.4S196.6 599.8 197.1 445c0.4-154.8 111.6-217.2 248.4-139.4z" fill="#99BEFF" /><path d="M564.3 874.7c0.4-0.1 0.9-0.3 1.3-0.4 1-0.3 2-0.7 2.9-1l0.9-0.3c1.3-0.5 2.5-1 3.7-1.5 0.3-0.1 0.6-0.2 0.9-0.4 1-0.4 1.9-0.8 2.9-1.3l1.2-0.6c0.9-0.4 1.7-0.8 2.6-1.3 0.4-0.2 0.7-0.4 1.1-0.6 1.2-0.6 2.4-1.3 3.5-1.9l22-12.6c-1.2 0.7-2.3 1.3-3.5 1.9-0.4 0.2-0.7 0.4-1.1 0.6-0.9 0.4-1.7 0.9-2.6 1.3l-1.2 0.6c-0.9 0.4-1.9 0.9-2.9 1.3-0.3 0.1-0.6 0.3-0.9 0.4-1.2 0.5-2.5 1-3.7 1.5l-0.9 0.3c-1 0.4-2 0.7-2.9 1-0.4 0.1-0.9 0.3-1.3 0.4-0.9 0.3-1.9 0.6-2.8 0.9l-1.2 0.3c-0.5 0.1-1 0.2-1.4 0.4-1.5 0.4-3 0.8-4.5 1.1l-1.5 0.3c-1.9 0.4-3.8 0.8-5.7 1.1-0.1 0-0.3 0-0.4 0.1-1.8 0.3-3.6 0.5-5.4 0.7-0.5 0.1-1.1 0.1-1.6 0.2-1.7 0.2-3.3 0.3-5 0.4-0.4 0-0.7 0.1-1.1 0.1-1.7 0.1-3.5 0.2-5.2 0.2H545.2c-0.6 0-1.2 0-1.8-0.1-1.2 0-2.4-0.1-3.6-0.2-0.7 0-1.4-0.1-2.1-0.1-1.1-0.1-2.3-0.2-3.4-0.3-0.8-0.1-1.6-0.2-2.4-0.2-0.9-0.1-1.8-0.2-2.6-0.3-0.8-0.1-1.7-0.2-2.6-0.3-0.9-0.1-1.8-0.3-2.7-0.4-0.9-0.1-1.7-0.3-2.6-0.4-0.9-0.2-1.8-0.3-2.7-0.5-0.9-0.2-1.7-0.3-2.6-0.5l-2.7-0.6-2.7-0.6c-0.8-0.2-1.6-0.4-2.5-0.6-0.9-0.2-1.9-0.5-2.8-0.7-0.8-0.2-1.7-0.4-2.5-0.7-0.9-0.3-1.9-0.5-2.9-0.8-0.8-0.2-1.7-0.5-2.5-0.8-1-0.3-1.9-0.6-2.9-0.9-0.8-0.3-1.7-0.5-2.5-0.8-1-0.3-2-0.7-3-1.1l-2.4-0.9c-1-0.4-2.1-0.8-3.1-1.2-0.8-0.3-1.6-0.6-2.3-0.9-1.1-0.4-2.2-0.9-3.2-1.3-0.7-0.3-1.5-0.6-2.2-0.9-1.2-0.5-2.4-1-3.5-1.5-0.7-0.3-1.3-0.6-2-0.9l-3.9-1.8c-0.6-0.3-1.1-0.5-1.7-0.8-1.9-0.9-3.8-1.8-5.6-2.8-0.3-0.1-0.6-0.3-0.8-0.4-1.6-0.8-3.2-1.7-4.8-2.5-0.7-0.4-1.4-0.8-2-1.1-1.3-0.7-2.6-1.4-4-2.2-2-1.1-3.9-2.2-5.8-3.4-0.7-0.4-1.3-0.8-2-1.2-1.3-0.8-2.6-1.5-3.8-2.3-0.8-0.5-1.5-1-2.3-1.5-1.1-0.7-2.3-1.5-3.4-2.2-0.8-0.5-1.6-1.1-2.4-1.6-1.1-0.7-2.2-1.5-3.3-2.2-0.4-0.3-0.8-0.5-1.1-0.8l-5.1-3.6c-0.7-0.5-1.4-1-2.1-1.6-1.4-1-2.7-2-4.1-3-0.8-0.6-1.5-1.2-2.3-1.8-1.3-1-2.6-2-4-3.1-0.8-0.6-1.5-1.2-2.2-1.8-1.4-1.1-2.8-2.3-4.2-3.4-0.6-0.5-1.2-1-1.8-1.4-2.6-2.1-5.1-4.3-7.7-6.5-0.5-0.5-1.1-1-1.6-1.4-2.6-2.2-5.1-4.5-7.6-6.9-0.2-0.2-0.5-0.4-0.7-0.7-2.4-2.2-4.7-4.5-7.1-6.7-0.5-0.5-0.9-0.9-1.4-1.3-2.4-2.4-4.9-4.8-7.2-7.3-0.6-0.6-1.2-1.3-1.9-1.9-1.3-1.3-2.5-2.6-3.7-3.9-0.7-0.7-1.4-1.5-2-2.2-1.3-1.4-2.6-2.8-3.8-4.2-0.6-0.6-1.2-1.3-1.8-1.9-3.7-4.1-7.3-8.3-10.9-12.5-0.6-0.7-1.1-1.4-1.7-2-1.2-1.5-2.4-3-3.7-4.4-0.6-0.8-1.3-1.6-1.9-2.4-1.2-1.4-2.3-2.9-3.4-4.3-0.6-0.8-1.2-1.6-1.8-2.3-1.3-1.6-2.5-3.3-3.8-4.9-0.4-0.6-0.9-1.2-1.3-1.8-1.7-2.2-3.3-4.5-5-6.7-0.4-0.5-0.7-1-1.1-1.5-1.3-1.8-2.6-3.6-3.8-5.4-0.6-0.8-1.1-1.6-1.7-2.4-1.1-1.5-2.1-3.1-3.2-4.6-0.6-0.8-1.1-1.7-1.7-2.6-1.1-1.6-2.1-3.2-3.1-4.8l-1.5-2.4c-1.3-2.1-2.6-4.1-3.9-6.2l-0.6-0.9c-1.5-2.4-3-4.8-4.4-7.2-0.4-0.7-0.9-1.4-1.3-2.2-1-1.7-2-3.4-3-5.2-0.5-0.9-1-1.8-1.5-2.6-0.9-1.6-1.8-3.2-2.8-4.8-0.5-0.9-1-1.8-1.5-2.6-1-1.8-1.9-3.5-2.9-5.3-0.4-0.7-0.7-1.4-1.1-2.1-1.7-3.3-3.4-6.5-5.1-9.8-0.3-0.7-0.7-1.3-1-2-1.6-3.3-3.3-6.6-4.8-9.9-0.2-0.5-0.5-1-0.7-1.5-1.5-3.2-3-6.5-4.5-9.7-0.1-0.3-0.3-0.7-0.5-1-1.5-3.4-3-6.8-4.4-10.2-0.3-0.8-0.6-1.5-1-2.3-0.7-1.8-1.5-3.6-2.2-5.4l-0.9-2.4c-1-2.6-2-5.2-3-7.7-0.1-0.3-0.2-0.5-0.3-0.8-0.9-2.3-1.7-4.7-2.5-7-0.3-0.8-0.6-1.7-0.9-2.5-0.6-1.8-1.2-3.6-1.8-5.3-0.3-1-0.7-2-1-3-0.4-1.3-0.9-2.6-1.3-4-0.3-1.1-0.7-2.2-1-3.2-0.4-1.3-0.8-2.6-1.2-4-0.3-1.1-0.6-2.1-1-3.2-0.4-1.3-0.8-2.7-1.1-4-0.3-1.1-0.6-2.1-0.9-3.2-0.4-1.4-0.7-2.7-1.1-4.1-0.3-1-0.6-2.1-0.8-3.1-0.3-1.1-0.5-2.2-0.8-3.3l-0.9-3.6c-0.3-1.1-0.5-2.2-0.8-3.3-0.3-1.2-0.5-2.4-0.8-3.6-0.2-1.1-0.5-2.2-0.7-3.3-0.3-1.2-0.5-2.4-0.7-3.6l-0.6-3.3c-0.2-1.2-0.5-2.4-0.7-3.6-0.2-1-0.4-2-0.5-3-0.2-1.2-0.4-2.4-0.6-3.7-0.2-1-0.3-2-0.5-3.1-0.2-1.2-0.4-2.4-0.5-3.6-0.1-1-0.3-2-0.4-3.1-0.2-1.2-0.3-2.4-0.5-3.6-0.1-1-0.3-2-0.4-3.1-0.1-1.2-0.3-2.4-0.4-3.6-0.1-1-0.2-2-0.3-3.1l-0.3-3.6-0.3-3-0.3-3.6c-0.1-1-0.1-2-0.2-3-0.1-1.2-0.1-2.4-0.2-3.6 0-1-0.1-2-0.1-3-0.1-1.4-0.1-2.8-0.1-4.2 0-0.7 0-1.4-0.1-2 0-2.1-0.1-4.1-0.1-6.2 0-2.3 0-4.7 0.1-7 0-0.7 0.1-1.5 0.1-2.2 0.1-1.5 0.1-3.1 0.2-4.6 0-0.9 0.1-1.8 0.2-2.7l0.3-3.9c0.1-0.9 0.2-1.8 0.2-2.7 0.1-1.3 0.2-2.5 0.4-3.8l0.3-2.7c0.1-1.2 0.3-2.5 0.5-3.7 0.1-0.9 0.2-1.7 0.4-2.6 0.2-1.2 0.4-2.5 0.6-3.7 0.1-0.8 0.2-1.6 0.4-2.3 0.4-2.3 0.8-4.7 1.3-7l0.3-1.2c0.4-1.9 0.8-3.8 1.3-5.7 0.2-0.6 0.3-1.3 0.5-1.9 0.5-1.9 1-3.8 1.5-5.6 0.1-0.3 0.2-0.7 0.3-1 0.6-2.1 1.3-4.2 2-6.3l0.6-1.8c0.4-1.3 0.9-2.5 1.3-3.8 0.2-0.7 0.5-1.3 0.7-2 0.5-1.2 1-2.5 1.5-3.7 0.2-0.6 0.5-1.1 0.7-1.7 0.7-1.7 1.5-3.3 2.2-5 0-0.1 0.1-0.1 0.1-0.2 0.8-1.7 1.6-3.3 2.5-5 0.3-0.5 0.5-1 0.8-1.5l1.8-3.3c0.3-0.6 0.6-1.1 1-1.7 0.6-1 1.2-2.1 1.9-3.1 0.3-0.5 0.6-1 1-1.5 0.8-1.2 1.6-2.4 2.4-3.5l0.6-0.9c1-1.4 2-2.8 3.1-4.2 0.3-0.4 0.6-0.7 0.9-1.1 0.8-1 1.6-2 2.4-2.9 0.4-0.5 0.8-0.9 1.2-1.4 0.8-0.9 1.5-1.7 2.3-2.5 0.4-0.4 0.8-0.9 1.2-1.3 0.9-0.9 1.7-1.8 2.6-2.6l1-1c1.2-1.2 2.4-2.3 3.7-3.4 0.2-0.2 0.5-0.4 0.7-0.6 1-0.9 2.1-1.7 3.1-2.6 0.4-0.3 0.9-0.7 1.3-1 0.9-0.7 1.8-1.4 2.7-2 0.5-0.3 1-0.7 1.4-1 0.9-0.7 1.9-1.3 2.8-1.9 0.4-0.3 0.9-0.6 1.3-0.9 1.4-0.9 2.8-1.7 4.2-2.6l-22 12.6c-1.4 0.8-2.8 1.7-4.2 2.6-0.4 0.3-0.9 0.6-1.3 0.9-1 0.6-1.9 1.3-2.8 1.9-0.5 0.3-1 0.7-1.4 1-0.9 0.7-1.8 1.3-2.7 2-0.4 0.3-0.9 0.7-1.3 1-1.1 0.8-2.1 1.7-3.1 2.6-0.2 0.2-0.5 0.4-0.7 0.6-1.2 1.1-2.5 2.2-3.7 3.4l-1 1-2.6 2.6c-0.4 0.4-0.8 0.9-1.2 1.3-0.8 0.8-1.5 1.7-2.3 2.5-0.4 0.5-0.8 0.9-1.2 1.4-0.8 1-1.6 1.9-2.4 2.9-0.3 0.4-0.6 0.7-0.9 1.1-1.1 1.4-2.1 2.8-3.1 4.2l-0.6 0.9c-0.8 1.2-1.6 2.3-2.4 3.5-0.3 0.5-0.7 1-1 1.5-0.6 1-1.3 2.1-1.9 3.1-0.3 0.6-0.7 1.1-1 1.7l-1.8 3.3c-0.3 0.5-0.5 1-0.8 1.5-0.9 1.6-1.7 3.3-2.5 5 0 0.1-0.1 0.1-0.1 0.2-0.8 1.6-1.5 3.3-2.2 5-0.2 0.6-0.5 1.1-0.7 1.7-0.5 1.2-1 2.5-1.5 3.7-0.2 0.6-0.5 1.3-0.7 2-0.5 1.2-0.9 2.5-1.3 3.8-0.1 0.4-0.3 0.8-0.4 1.2-0.1 0.2-0.1 0.4-0.2 0.6-0.7 2.1-1.3 4.2-2 6.3-0.1 0.3-0.2 0.7-0.3 1-0.5 1.8-1 3.7-1.5 5.6-0.2 0.6-0.3 1.3-0.5 1.9-0.5 1.9-0.9 3.8-1.3 5.7l-0.3 1.2c-0.5 2.3-0.9 4.6-1.3 7 0 0.2-0.1 0.4-0.1 0.6-0.1 0.6-0.2 1.2-0.3 1.7-0.2 1.2-0.4 2.4-0.6 3.7-0.1 0.9-0.2 1.7-0.4 2.6-0.2 1.2-0.3 2.4-0.5 3.7l-0.3 2.7c-0.1 1.2-0.2 2.5-0.4 3.8-0.1 0.9-0.2 1.8-0.2 2.7l-0.3 3.9c0 0.6-0.1 1.2-0.1 1.9v0.8c-0.1 1.5-0.1 3.1-0.2 4.6 0 0.7-0.1 1.5-0.1 2.2-0.1 2.3-0.1 4.6-0.1 7 0 2.1 0 4.1 0.1 6.2 0 0.7 0 1.4 0.1 2 0 1.1 0 2.1 0.1 3.2v0.9c0 1 0.1 2 0.1 3 0.1 1.2 0.1 2.4 0.2 3.6 0.1 1 0.1 2 0.2 3l0.3 3.6 0.3 3 0.3 3.6c0.1 1 0.2 2 0.3 3.1 0.1 0.6 0.1 1.3 0.2 1.9 0.1 0.6 0.1 1.1 0.2 1.7 0.1 1 0.2 2 0.4 3 0.2 1.2 0.3 2.4 0.5 3.6 0.1 1 0.3 2 0.4 3.1 0.2 1.2 0.4 2.4 0.5 3.6 0.2 1 0.3 2 0.5 3.1 0.2 1.2 0.4 2.4 0.6 3.7 0.2 1 0.4 2 0.5 3 0.1 0.4 0.1 0.8 0.2 1.1 0.2 0.8 0.3 1.6 0.5 2.4l0.6 3.3c0.2 1.2 0.5 2.4 0.7 3.5 0.2 1.1 0.5 2.2 0.7 3.3 0.3 1.2 0.5 2.4 0.8 3.6 0.3 1.1 0.5 2.2 0.8 3.3l0.9 3.6c0.3 1.1 0.5 2.2 0.8 3.3 0.1 0.3 0.1 0.6 0.2 0.8 0.2 0.8 0.4 1.5 0.6 2.3 0.4 1.4 0.7 2.7 1.1 4.1 0.3 1.1 0.6 2.1 0.9 3.2 0.4 1.3 0.8 2.7 1.2 4 0.3 1.1 0.6 2.1 0.9 3.2 0.4 1.3 0.8 2.7 1.2 4 0.3 1.1 0.7 2.1 1 3.2 0.4 1.3 0.8 2.6 1.3 4 0.2 0.6 0.4 1.1 0.5 1.7 0.2 0.5 0.3 0.9 0.5 1.4 0.6 1.8 1.2 3.6 1.8 5.3 0.3 0.8 0.6 1.7 0.9 2.5 0.8 2.3 1.7 4.7 2.5 7 0.1 0.3 0.2 0.5 0.3 0.8 1 2.6 2 5.2 3 7.7 0.3 0.8 0.6 1.6 0.9 2.3 0.7 1.8 1.5 3.6 2.2 5.4 0.2 0.4 0.3 0.8 0.5 1.2 0.2 0.4 0.3 0.7 0.5 1.1 1.4 3.4 2.9 6.8 4.4 10.2 0.1 0.3 0.3 0.7 0.4 1 1.5 3.2 2.9 6.5 4.5 9.7 0.2 0.5 0.5 1 0.7 1.5l4.8 9.9c0.3 0.7 0.7 1.3 1 2 1.7 3.3 3.4 6.6 5.1 9.8 0.1 0.1 0.1 0.3 0.2 0.4 0.3 0.6 0.6 1.1 0.9 1.7 1 1.8 1.9 3.5 2.9 5.3 0.5 0.9 1 1.8 1.5 2.6 0.9 1.6 1.8 3.2 2.8 4.8 0.5 0.9 1 1.8 1.5 2.6l3 5.1c0.4 0.7 0.9 1.4 1.3 2.2 1.5 2.4 2.9 4.8 4.4 7.2l0.6 0.9c1.3 2.1 2.6 4.1 3.9 6.2l1.5 2.4c1 1.6 2.1 3.2 3.1 4.8 0.6 0.9 1.1 1.7 1.7 2.5 1.1 1.6 2.1 3.1 3.2 4.6 0.6 0.8 1.1 1.6 1.7 2.4 1.3 1.8 2.5 3.6 3.8 5.4 0.4 0.5 0.7 1 1.1 1.5 1.6 2.3 3.3 4.5 5 6.7 0.4 0.6 0.9 1.2 1.3 1.7 1.3 1.7 2.5 3.3 3.8 4.9 0.6 0.8 1.2 1.6 1.8 2.3 1.1 1.5 2.3 2.9 3.4 4.3 0.6 0.8 1.3 1.6 1.9 2.4 1.2 1.5 2.4 3 3.7 4.4 0.6 0.7 1.1 1.4 1.7 2 3.6 4.2 7.2 8.4 10.9 12.5 0.6 0.6 1.2 1.3 1.8 1.9 1.3 1.4 2.6 2.8 3.8 4.2 0.7 0.7 1.4 1.5 2 2.2 1.2 1.3 2.5 2.6 3.7 3.9 0.4 0.4 0.8 0.9 1.3 1.3l0.6 0.6c2.4 2.5 4.8 4.9 7.2 7.3 0.5 0.5 0.9 0.9 1.4 1.3 2.3 2.3 4.7 4.5 7.1 6.7 0.2 0.2 0.5 0.4 0.7 0.7 2.5 2.3 5.1 4.6 7.6 6.9 0.5 0.5 1.1 1 1.6 1.4 2.5 2.2 5.1 4.4 7.7 6.5l0.3 0.3c0.5 0.4 1 0.8 1.4 1.2 1.4 1.2 2.8 2.3 4.2 3.4 0.7 0.6 1.5 1.2 2.2 1.8 1.3 1 2.6 2.1 4 3.1 0.8 0.6 1.5 1.2 2.3 1.8 1.4 1 2.7 2 4.1 3 0.7 0.5 1.4 1 2.1 1.6l5.1 3.6c0.3 0.2 0.6 0.5 1 0.7 0.1 0 0.1 0.1 0.2 0.1 1.1 0.7 2.2 1.5 3.3 2.2 0.8 0.5 1.6 1.1 2.4 1.6 1.2 0.8 2.3 1.5 3.5 2.2 0.8 0.5 1.5 1 2.3 1.5l3.9 2.4c0.7 0.4 1.3 0.8 2 1.2 1.9 1.2 3.9 2.3 5.8 3.4l0.6 0.3c1.1 0.6 2.3 1.2 3.4 1.9 0.7 0.4 1.4 0.8 2 1.1 1.6 0.9 3.2 1.7 4.8 2.5 0.3 0.2 0.6 0.3 0.9 0.5 1.9 1 3.8 1.9 5.6 2.8 0.6 0.3 1.2 0.5 1.7 0.8 1.2 0.6 2.4 1.2 3.6 1.7 0.1 0 0.2 0.1 0.2 0.1 0.7 0.3 1.3 0.6 2 0.9 1.2 0.5 2.4 1.1 3.5 1.6 0.7 0.3 1.5 0.6 2.2 0.9 1.1 0.5 2.2 0.9 3.3 1.3 0.8 0.3 1.6 0.6 2.3 0.9 1 0.4 2.1 0.8 3.1 1.2l2.4 0.9c0.7 0.2 1.4 0.5 2.1 0.7l0.9 0.3c0.8 0.3 1.7 0.6 2.5 0.8 1 0.3 1.9 0.6 2.9 0.9 0.8 0.3 1.7 0.5 2.5 0.8 1 0.3 1.9 0.6 2.9 0.8 0.8 0.2 1.7 0.5 2.5 0.7 0.9 0.3 1.9 0.5 2.8 0.7 0.8 0.2 1.6 0.4 2.5 0.6 0.5 0.1 0.9 0.2 1.4 0.3 0.4 0.1 0.9 0.2 1.3 0.3l2.7 0.6c0.9 0.2 1.7 0.4 2.6 0.5 0.9 0.2 1.8 0.3 2.7 0.5 0.9 0.2 1.7 0.3 2.6 0.4 0.9 0.1 1.8 0.3 2.7 0.4 0.9 0.1 1.7 0.2 2.6 0.3 0.9 0.1 1.8 0.2 2.6 0.3 0.5 0.1 0.9 0.1 1.4 0.2 0.3 0 0.7 0.1 1 0.1 1.1 0.1 2.3 0.2 3.4 0.3 0.7 0.1 1.4 0.1 2.1 0.1 1.2 0.1 2.4 0.1 3.6 0.2 0.6 0 1.2 0.1 1.8 0.1H528.8c1.8 0 3.5-0.1 5.2-0.2h0.3c0.3 0 0.5 0 0.8-0.1 1.7-0.1 3.4-0.2 5-0.4 0.6-0.1 1.1-0.1 1.6-0.2 1.8-0.2 3.6-0.4 5.4-0.7 0.1 0 0.3 0 0.4-0.1 1.9-0.3 3.8-0.7 5.7-1.1l1.5-0.3c1.5-0.3 3-0.7 4.5-1.1 0.3-0.1 0.6-0.1 0.9-0.2 0.2-0.1 0.4-0.1 0.5-0.2l1.2-0.3c0.7 0 1.6-0.3 2.5-0.6z" fill="#337DFF" /><path d="M867.9 619.2c0-0.7 0-1.5-0.1-2.2 0-1.2 0-2.4-0.1-3.5v-1c0-1.1-0.1-2.2-0.1-3.3-0.1-1.3-0.1-2.6-0.2-3.9-0.1-1.1-0.1-2.2-0.2-3.3l-0.3-3.9-0.3-3.3c-0.1-1.3-0.2-2.6-0.4-3.9-0.1-1.1-0.2-2.2-0.3-3.4-0.1-0.7-0.1-1.4-0.2-2.1-0.1-0.6-0.2-1.2-0.2-1.8-0.1-1.1-0.3-2.2-0.4-3.4-0.2-1.3-0.3-2.6-0.5-4-0.2-1.1-0.3-2.2-0.5-3.4-0.2-1.3-0.4-2.7-0.6-4-0.2-1.1-0.4-2.2-0.5-3.4-0.2-1.3-0.5-2.7-0.7-4l-0.6-3.3c-0.1-0.4-0.1-0.8-0.2-1.2-0.2-0.9-0.3-1.8-0.5-2.7-0.2-1.2-0.5-2.4-0.7-3.6-0.3-1.3-0.5-2.6-0.8-3.9-0.3-1.2-0.5-2.4-0.8-3.6l-0.9-3.9c-0.3-1.2-0.6-2.4-0.8-3.6-0.3-1.3-0.6-2.6-1-3.9l-0.9-3.6c-0.1-0.3-0.2-0.6-0.2-0.9-0.2-0.8-0.5-1.7-0.7-2.5l-1.2-4.5c-0.3-1.2-0.7-2.3-1-3.5-0.4-1.5-0.8-2.9-1.3-4.4-0.3-1.2-0.7-2.4-1.1-3.5-0.4-1.5-0.9-2.9-1.3-4.4-0.4-1.2-0.7-2.4-1.1-3.6-0.5-1.4-0.9-2.9-1.4-4.3-0.2-0.6-0.4-1.2-0.6-1.9-0.2-0.5-0.3-1-0.5-1.5-0.7-2-1.3-3.9-2-5.9-0.3-0.9-0.6-1.9-1-2.8-0.9-2.6-1.8-5.1-2.8-7.7l-0.3-0.9c-1.1-2.8-2.2-5.7-3.3-8.5-0.3-0.9-0.7-1.7-1-2.6l-2.4-6c-0.2-0.4-0.4-0.9-0.5-1.3-0.2-0.4-0.3-0.8-0.5-1.2-1.6-3.7-3.2-7.5-4.8-11.2-0.2-0.4-0.3-0.7-0.5-1.1-1.6-3.6-3.2-7.1-4.9-10.7-0.3-0.5-0.5-1.1-0.8-1.6-1.7-3.6-3.5-7.3-5.3-10.9-0.4-0.7-0.7-1.4-1.1-2.2-1.8-3.6-3.7-7.2-5.6-10.8-0.1-0.1-0.1-0.3-0.2-0.4-0.3-0.6-0.7-1.2-1-1.8-1-1.9-2.1-3.9-3.2-5.8-0.5-1-1.1-1.9-1.6-2.9l-3-5.4c-0.6-1-1.1-1.9-1.7-2.9-1.1-1.9-2.2-3.8-3.4-5.7-0.5-0.8-0.9-1.6-1.4-2.4-1.6-2.7-3.2-5.3-4.9-7.9-0.2-0.3-0.4-0.7-0.7-1-1.4-2.3-2.9-4.6-4.3-6.8-0.6-0.9-1.1-1.7-1.7-2.6-1.1-1.8-2.3-3.5-3.5-5.2-0.6-0.9-1.3-1.9-1.9-2.8-1.2-1.7-2.3-3.4-3.5-5.1-0.6-0.9-1.2-1.8-1.8-2.6-1.4-2-2.8-4-4.2-5.9-0.4-0.5-0.8-1.1-1.2-1.6-1.8-2.5-3.6-5-5.5-7.4-0.5-0.6-1-1.3-1.5-1.9l-4.2-5.4c-0.7-0.9-1.3-1.7-2-2.6-1.3-1.6-2.5-3.2-3.8-4.8-0.7-0.9-1.4-1.7-2.1-2.6-1.3-1.6-2.7-3.3-4-4.9-0.6-0.7-1.2-1.5-1.9-2.2-2-2.3-3.9-4.6-5.9-6.9-2-2.3-4-4.6-6-6.8-0.6-0.7-1.3-1.4-1.9-2.1-1.4-1.5-2.8-3.1-4.2-4.6-0.7-0.8-1.5-1.6-2.2-2.4-1.4-1.5-2.7-2.9-4.1-4.3-0.5-0.5-0.9-1-1.4-1.4-0.4-0.4-0.8-0.8-1.1-1.2-0.6-0.6-1.2-1.3-1.9-1.9l-3.5-3.5-1.8-1.8c-1.3-1.3-2.6-2.6-4-3.9-0.4-0.4-0.9-0.8-1.3-1.2-1.8-1.7-3.5-3.3-5.3-5-0.4-0.4-0.9-0.8-1.3-1.2-1.4-1.2-2.7-2.5-4.1-3.7-0.6-0.6-1.3-1.1-1.9-1.7-1.2-1.1-2.4-2.1-3.6-3.2-0.7-0.6-1.3-1.1-2-1.7-1.3-1.1-2.6-2.2-3.8-3.3-0.6-0.5-1.1-0.9-1.7-1.4-0.2-0.2-0.4-0.3-0.6-0.5-0.5-0.4-1.1-0.8-1.6-1.3-1.6-1.3-3.1-2.5-4.7-3.8-0.8-0.7-1.6-1.3-2.5-1.9-1.4-1.1-2.9-2.3-4.4-3.4-0.8-0.6-1.7-1.3-2.6-1.9l-4.5-3.3c-0.8-0.6-1.6-1.2-2.4-1.7-1.9-1.3-3.8-2.7-5.7-4-0.4-0.2-0.7-0.5-1.1-0.8-0.1 0-0.1-0.1-0.2-0.1l-3.6-2.4-2.7-1.8c-1.3-0.8-2.6-1.7-3.9-2.5-0.8-0.5-1.7-1.1-2.5-1.6-1.4-0.9-2.8-1.7-4.3-2.6-0.7-0.4-1.4-0.9-2.1-1.3-2.1-1.3-4.3-2.5-6.4-3.8-0.2-0.1-0.4-0.2-0.6-0.4-1.3-0.7-2.5-1.4-3.7-2.1-0.7-0.4-1.5-0.8-2.2-1.2-1.7-0.9-3.5-1.9-5.2-2.7-0.3-0.2-0.7-0.4-1-0.5-2.1-1.1-4.1-2.1-6.2-3.1-0.6-0.3-1.3-0.6-1.9-0.9-1.3-0.6-2.7-1.3-4-1.9-0.1 0-0.2-0.1-0.3-0.1-0.7-0.3-1.5-0.6-2.2-1-1.3-0.6-2.6-1.2-3.9-1.7-0.8-0.4-1.6-0.7-2.5-1l-3.6-1.5c-0.9-0.3-1.7-0.7-2.6-1-1.1-0.4-2.3-0.9-3.4-1.3-0.9-0.3-1.8-0.6-2.6-0.9-0.8-0.3-1.5-0.6-2.3-0.8-0.3-0.1-0.7-0.2-1-0.3-0.9-0.3-1.8-0.6-2.8-0.9-1.1-0.3-2.1-0.7-3.2-1-0.9-0.3-1.8-0.6-2.7-0.8-1-0.3-2.1-0.6-3.1-0.9-0.9-0.3-1.8-0.5-2.7-0.7-1-0.3-2.1-0.5-3.1-0.8-0.9-0.2-1.8-0.4-2.7-0.7-0.5-0.1-1-0.3-1.5-0.4l-1.5-0.3-3-0.6c-1-0.2-1.9-0.4-2.9-0.6-1-0.2-2-0.4-3-0.5-0.9-0.2-1.9-0.3-2.8-0.5-1-0.2-2-0.3-2.9-0.4-0.9-0.1-1.9-0.3-2.8-0.4-1-0.1-1.9-0.2-2.9-0.3-0.5-0.1-1-0.1-1.5-0.2-0.4 0-0.7-0.1-1.1-0.1-1.2-0.1-2.5-0.2-3.7-0.3-0.8-0.1-1.6-0.1-2.3-0.2-1.3-0.1-2.6-0.1-4-0.2-0.7 0-1.3-0.1-2-0.1h-5.9c-1.9 0-3.9 0.1-5.8 0.2h-0.3l-4.2 0.3c-0.4 0-0.7 0.1-1.1 0.1-1.2 0.1-2.5 0.2-3.7 0.4-0.4 0-0.8 0.1-1.2 0.1l-4.5 0.6c-0.1 0-0.3 0.1-0.4 0.1-1.4 0.2-2.7 0.5-4.1 0.7l-1.2 0.3c-1.3 0.3-2.5 0.5-3.7 0.8-0.2 0.1-0.5 0.1-0.7 0.2-1.2 0.3-2.4 0.6-3.7 0.9-0.2 0.1-0.4 0.1-0.6 0.2-0.4 0.1-0.9 0.3-1.3 0.4-1 0.3-2.1 0.6-3.1 0.9-0.5 0.2-0.9 0.3-1.4 0.5-1.1 0.4-2.2 0.7-3.2 1.1-0.3 0.1-0.7 0.2-1 0.4-1.4 0.5-2.8 1.1-4.1 1.6-0.3 0.1-0.6 0.3-0.9 0.4-1.1 0.5-2.1 0.9-3.2 1.4-0.4 0.2-0.9 0.4-1.3 0.6-1 0.5-1.9 0.9-2.8 1.4l-1.2 0.6-3.9 2.1-159.2 91.2c-0.3 0.1-0.5 0.2-0.8 0.3-1.1 0.5-2.1 0.9-3.2 1.4-0.4 0.2-0.9 0.4-1.3 0.6-1 0.5-1.9 0.9-2.8 1.4l-1.2 0.6-3.9 2.1-22 12.6 3.9-2.1 1.2-0.6c0.9-0.5 1.9-0.9 2.8-1.4 0.4-0.2 0.9-0.4 1.3-0.6 1-0.5 2.1-0.9 3.2-1.4 0.3-0.1 0.6-0.3 0.9-0.4 1.4-0.6 2.7-1.1 4.1-1.6 0.3-0.1 0.7-0.2 1-0.4 1.1-0.4 2.2-0.8 3.2-1.1 0.5-0.2 0.9-0.3 1.4-0.5 1-0.3 2.1-0.6 3.1-0.9 0.4-0.1 0.9-0.3 1.3-0.4 1.4-0.4 2.8-0.8 4.3-1.1 0.2-0.1 0.5-0.1 0.7-0.2 1.2-0.3 2.5-0.6 3.7-0.8 0.4-0.1 0.8-0.2 1.2-0.2 1.3-0.3 2.7-0.5 4.1-0.7 0.1 0 0.3-0.1 0.4-0.1 1.5-0.2 3-0.5 4.5-0.6 0.4-0.1 0.8-0.1 1.2-0.1 1.2-0.1 2.5-0.3 3.7-0.4 0.4 0 0.7-0.1 1.1-0.1l4.5-0.3c1.9-0.1 3.8-0.2 5.8-0.2h5.9c0.7 0 1.3 0 2 0.1 1.3 0 2.6 0.1 4 0.2 0.8 0 1.6 0.1 2.3 0.2 1.2 0.1 2.5 0.2 3.7 0.3 0.9 0.1 1.8 0.2 2.6 0.3 1 0.1 1.9 0.2 2.9 0.3 0.9 0.1 1.9 0.2 2.8 0.4 1 0.1 1.9 0.3 2.9 0.4 0.9 0.2 1.9 0.3 2.8 0.5 1 0.2 2 0.4 3 0.5 1 0.2 1.9 0.4 2.9 0.6l3 0.6c1 0.2 2 0.4 3 0.7 0.9 0.2 1.8 0.4 2.7 0.7 1 0.3 2.1 0.5 3.1 0.8 0.9 0.2 1.8 0.5 2.7 0.7 1 0.3 2.1 0.6 3.1 0.9 0.9 0.3 1.8 0.5 2.7 0.8 1.1 0.3 2.1 0.7 3.2 1l2.7 0.9 3.3 1.2c0.9 0.3 1.7 0.6 2.6 0.9 1.1 0.4 2.3 0.9 3.4 1.3 0.9 0.3 1.7 0.7 2.6 1l3.6 1.5c0.8 0.3 1.6 0.7 2.4 1 1.3 0.6 2.6 1.1 3.9 1.7 0.7 0.3 1.4 0.6 2.2 1 1.4 0.6 2.9 1.3 4.3 2 0.6 0.3 1.2 0.6 1.9 0.9 2.1 1 4.1 2 6.2 3.1 0.3 0.1 0.6 0.3 0.8 0.4 1.8 0.9 3.6 1.9 5.4 2.8 0.7 0.4 1.5 0.8 2.2 1.2 1.5 0.8 2.9 1.6 4.4 2.4 2.2 1.2 4.3 2.5 6.4 3.8 0.7 0.4 1.4 0.9 2.1 1.3 1.4 0.9 2.9 1.7 4.3 2.6 0.8 0.5 1.7 1.1 2.5 1.6 1.3 0.8 2.6 1.6 3.8 2.5l2.7 1.8 3.6 2.4 1.2 0.9c1.9 1.3 3.8 2.6 5.7 4 0.8 0.6 1.6 1.1 2.4 1.7l4.5 3.3c0.9 0.6 1.7 1.3 2.6 1.9 1.5 1.1 2.9 2.2 4.4 3.4 0.8 0.6 1.7 1.3 2.5 1.9 1.6 1.2 3.1 2.5 4.7 3.8 0.7 0.6 1.4 1.2 2.1 1.7 0.6 0.5 1.1 0.9 1.7 1.4 1.3 1.1 2.6 2.2 3.8 3.3 0.7 0.6 1.3 1.1 2 1.7 1.2 1.1 2.4 2.1 3.6 3.2 0.6 0.6 1.3 1.1 1.9 1.7 1.4 1.2 2.7 2.5 4.1 3.7 0.4 0.4 0.8 0.8 1.3 1.2 1.8 1.6 3.5 3.3 5.3 5 0.4 0.4 0.9 0.8 1.3 1.2 1.3 1.3 2.7 2.6 4 3.9l1.8 1.8 3.5 3.5c0.6 0.6 1.2 1.3 1.9 1.9 0.8 0.9 1.7 1.7 2.5 2.6 1.4 1.4 2.8 2.9 4.1 4.3 0.8 0.8 1.5 1.6 2.3 2.4 1.4 1.5 2.8 3.1 4.2 4.6 0.6 0.7 1.3 1.4 1.9 2.1 4 4.5 8 9.1 12 13.8 0.6 0.7 1.2 1.5 1.9 2.2 1.3 1.6 2.7 3.2 4 4.9 0.7 0.9 1.4 1.7 2.1 2.6 1.3 1.6 2.5 3.2 3.8 4.8 0.7 0.9 1.3 1.7 2 2.6l4.2 5.4c0.5 0.6 1 1.3 1.4 1.9 1.8 2.5 3.7 4.9 5.5 7.4 0.4 0.5 0.8 1.1 1.2 1.6 1.4 2 2.8 3.9 4.2 5.9 0.6 0.9 1.2 1.8 1.8 2.6 1.2 1.7 2.3 3.4 3.5 5.1 0.6 0.9 1.3 1.9 1.9 2.8 1.2 1.7 2.3 3.5 3.5 5.3 0.6 0.9 1.1 1.7 1.7 2.6 1.5 2.3 2.9 4.6 4.4 6.8 0.2 0.3 0.4 0.7 0.6 1 1.6 2.6 3.3 5.3 4.9 7.9 0.5 0.8 0.9 1.6 1.4 2.4 1.1 1.9 2.2 3.8 3.4 5.7 0.6 1 1.1 1.9 1.7 2.9 1 1.8 2 3.6 3 5.3 0.5 1 1.1 1.9 1.6 2.9 1.1 1.9 2.1 3.9 3.2 5.8 0.4 0.8 0.8 1.5 1.2 2.3 1.9 3.6 3.8 7.2 5.6 10.8 0.4 0.7 0.7 1.4 1.1 2.2 1.8 3.6 3.6 7.2 5.3 10.9 0.3 0.5 0.5 1.1 0.8 1.6 1.7 3.5 3.3 7.1 4.9 10.7 0.2 0.4 0.3 0.7 0.5 1.1 1.7 3.7 3.2 7.4 4.8 11.2 0.4 0.8 0.7 1.7 1.1 2.5l2.4 6c0.3 0.9 0.7 1.7 1 2.6 1.1 2.8 2.2 5.7 3.3 8.5 0.1 0.3 0.2 0.6 0.3 0.8 1 2.6 1.9 5.1 2.8 7.7 0.3 0.9 0.7 1.9 1 2.8 0.7 1.9 1.3 3.9 2 5.8 0.4 1.1 0.7 2.2 1.1 3.4 0.5 1.4 0.9 2.9 1.4 4.3 0.4 1.2 0.8 2.4 1.1 3.6 0.5 1.5 0.9 2.9 1.3 4.4 0.4 1.2 0.7 2.4 1.1 3.5 0.4 1.5 0.8 2.9 1.3 4.4 0.3 1.2 0.7 2.3 1 3.5l1.2 4.5c0.3 1.2 0.6 2.3 0.9 3.5l0.9 3.6c0.3 1.3 0.6 2.6 1 3.9 0.3 1.2 0.6 2.4 0.8 3.6l0.9 3.9c0.3 1.2 0.5 2.4 0.8 3.6 0.3 1.3 0.5 2.6 0.8 3.9 0.2 1.2 0.5 2.4 0.7 3.6 0.3 1.3 0.5 2.6 0.7 3.9l0.6 3.3c0.2 1.3 0.5 2.7 0.7 4 0.2 1.1 0.4 2.2 0.5 3.4 0.2 1.3 0.4 2.7 0.6 4 0.2 1.1 0.3 2.2 0.5 3.4 0.2 1.3 0.4 2.7 0.5 4 0.1 1.1 0.3 2.2 0.4 3.3 0.2 1.3 0.3 2.6 0.4 4 0.1 1.1 0.2 2.2 0.3 3.4 0.1 1.3 0.2 2.6 0.4 3.9l0.3 3.3 0.3 3.9c0.1 1.1 0.2 2.2 0.2 3.3 0.1 1.3 0.1 2.6 0.2 3.9 0.1 1.1 0.1 2.2 0.1 3.3 0.1 1.5 0.1 3 0.1 4.6 0 0.8 0 1.5 0.1 2.3 0 2.3 0.1 4.6 0.1 6.8 0 2.6-0.1 5.1-0.1 7.7 0 0.8-0.1 1.6-0.1 2.5-0.1 1.7-0.1 3.4-0.2 5-0.1 1-0.1 2-0.2 2.9-0.1 1.5-0.2 2.9-0.3 4.3l-0.3 3c-0.1 1.4-0.3 2.8-0.4 4.1l-0.3 3c-0.2 1.4-0.3 2.7-0.5 4-0.1 1-0.3 1.9-0.4 2.9-0.2 1.4-0.4 2.7-0.6 4-0.1 0.9-0.3 1.7-0.4 2.6-0.4 2.6-0.9 5.1-1.4 7.7-0.1 0.4-0.2 0.8-0.3 1.3-0.4 2.1-0.9 4.2-1.4 6.3-0.2 0.7-0.3 1.4-0.5 2.1-0.5 2.1-1.1 4.1-1.7 6.2-0.1 0.4-0.2 0.7-0.3 1.1-0.7 2.3-1.4 4.6-2.2 6.9-0.2 0.7-0.5 1.3-0.7 2-0.5 1.4-1 2.8-1.5 4.1-0.3 0.7-0.5 1.4-0.8 2.2-0.5 1.4-1.1 2.7-1.6 4.1-0.3 0.6-0.5 1.2-0.8 1.9-0.8 1.9-1.6 3.7-2.5 5.5 0 0.1-0.1 0.1-0.1 0.2-0.9 1.9-1.8 3.7-2.7 5.5-0.3 0.6-0.6 1.1-0.9 1.7-0.7 1.2-1.3 2.5-2 3.7-0.4 0.6-0.7 1.2-1.1 1.8-0.7 1.2-1.4 2.3-2.1 3.4-0.4 0.6-0.7 1.1-1.1 1.7-0.8 1.3-1.7 2.6-2.6 3.9-0.2 0.3-0.4 0.7-0.7 1-1.1 1.6-2.3 3.1-3.4 4.6-0.3 0.4-0.6 0.8-1 1.2-0.9 1.1-1.7 2.2-2.6 3.2-0.4 0.5-0.9 1-1.3 1.5-0.8 0.9-1.7 1.9-2.5 2.8-0.4 0.5-0.9 1-1.3 1.4-0.9 1-1.9 1.9-2.8 2.9l-1.1 1.1c-1.3 1.3-2.7 2.5-4 3.7-0.3 0.2-0.5 0.4-0.8 0.7-1.1 1-2.3 1.9-3.4 2.8-0.5 0.4-1 0.8-1.5 1.1-1 0.8-2 1.5-2.9 2.2-0.5 0.4-1.1 0.8-1.6 1.1-1 0.7-2.1 1.4-3.1 2.1-0.5 0.3-1 0.6-1.4 0.9-1.5 1-3.1 1.9-4.6 2.8l22-12.6c1.6-0.9 3.1-1.8 4.6-2.8 0.5-0.3 1-0.6 1.4-0.9 1.1-0.7 2.1-1.4 3.1-2.1 0.5-0.4 1.1-0.8 1.6-1.1 1-0.7 2-1.5 2.9-2.2 0.5-0.4 1-0.8 1.5-1.1 1-0.8 1.9-1.6 2.8-2.3-0.6 0.6-1.3 1.2-1.9 1.8-0.3 0.2-0.5 0.4-0.8 0.7-1.1 1-2.3 1.9-3.4 2.9-0.5 0.4-1 0.8-1.5 1.1-1 0.8-2 1.5-3 2.2-0.5 0.4-1.1 0.8-1.6 1.1-1 0.7-2.1 1.4-3.1 2.1-0.5 0.3-0.9 0.6-1.4 0.9-1.5 1-3.1 1.9-4.6 2.8l175.7-100.6c1.6-0.9 3.1-1.8 4.6-2.8 0.5-0.3 1-0.6 1.4-0.9 1.1-0.7 2.1-1.4 3.1-2.1 0.5-0.4 1.1-0.8 1.6-1.1 1-0.7 2-1.5 2.9-2.2 0.5-0.4 1-0.7 1.5-1.1 1.2-0.9 2.3-1.9 3.4-2.9 0.3-0.2 0.5-0.4 0.8-0.7 1.4-1.2 2.7-2.5 4.1-3.7l1.1-1.1c1-0.9 1.9-1.9 2.9-2.9 0.5-0.5 0.9-1 1.3-1.4 0.8-0.9 1.7-1.9 2.5-2.8 0.4-0.5 0.9-1 1.3-1.5 0.9-1.1 1.8-2.1 2.6-3.2 0.3-0.4 0.6-0.8 1-1.2 1.2-1.5 2.3-3 3.4-4.6 0.2-0.3 0.4-0.7 0.7-1 0.9-1.3 1.8-2.6 2.6-3.9 0.4-0.6 0.7-1.1 1.1-1.7 0.7-1.1 1.4-2.3 2.1-3.4 0.4-0.6 0.7-1.2 1.1-1.8 0.7-1.2 1.4-2.4 2-3.7 0.3-0.6 0.6-1.1 0.9-1.7 0.9-1.8 1.9-3.6 2.7-5.5 0-0.1 0.1-0.2 0.1-0.2 0.8-1.8 1.7-3.6 2.4-5.5 0.3-0.6 0.5-1.2 0.8-1.9 0.6-1.3 1.1-2.7 1.6-4.1 0.3-0.7 0.5-1.4 0.8-2.2 0.5-1.4 1-2.7 1.5-4.1 0.2-0.5 0.3-0.9 0.5-1.4 0.1-0.2 0.1-0.4 0.2-0.6 0.8-2.3 1.5-4.6 2.2-6.9 0.1-0.4 0.2-0.7 0.3-1.1 0.6-2 1.1-4.1 1.7-6.2 0.2-0.7 0.4-1.4 0.5-2.1 0.5-2.1 1-4.2 1.4-6.3 0.1-0.4 0.2-0.8 0.3-1.3 0.5-2.5 1-5.1 1.4-7.6 0-0.2 0.1-0.4 0.1-0.7 0.1-0.6 0.2-1.3 0.3-1.9 0.2-1.3 0.4-2.7 0.6-4 0.1-1 0.3-1.9 0.4-2.9 0.2-1.3 0.3-2.7 0.5-4l0.3-3c0.1-1.4 0.3-2.8 0.4-4.1l0.3-3c0.1-1.4 0.2-2.9 0.3-4.3 0-0.7 0.1-1.4 0.1-2.1v-0.9c0.1-1.7 0.2-3.3 0.2-5 0-0.8 0.1-1.6 0.1-2.5 0.1-2.5 0.1-5.1 0.1-7.7 0.3-2.5 0.2-4.8 0.2-7.1z" fill="#f4ea2a" /><path d="M426.8 315.2C563.6 393 674.1 581.5 673.6 736.3 673.2 891 562 953.5 425.2 875.7S178 609.4 178.4 454.6c0.5-154.7 111.7-217.2 248.4-139.4z m-1.5 534.9C549.5 920.7 650.6 864 651 723.4c0.4-140.6-100-311.9-224.2-382.5-124.2-70.7-225.3-13.9-225.7 126.7-0.4 140.5 99.9 311.8 224.2 382.5" fill="#FFE872" /><path d="M876.9 368.8c101 164.9-73.6 336.8-241 237.1-13-7.7-30.1-24.6-38-37.5-101-164.9 73.6-336.8 241-237.1 13 7.7 30.1 24.6 38 37.5zM560.1 738.7v-0.7-0.7-0.3-0.2-0.3c0-0.3-0.1-0.5-0.1-0.8 0-0.2-0.1-0.4-0.1-0.6v-0.1-0.1c0-0.3-0.1-0.5-0.1-0.8-0.1-0.3-0.1-0.5-0.2-0.8v-0.1-0.1c-0.1-0.2-0.1-0.4-0.2-0.7-0.1-0.3-0.1-0.6-0.2-0.8 0-0.1-0.1-0.2-0.1-0.3 0-0.1 0-0.1-0.1-0.2 0-0.1-0.1-0.3-0.1-0.4-0.1-0.3-0.2-0.6-0.3-0.8-0.1-0.2-0.1-0.3-0.2-0.5v-0.1s0-0.1-0.1-0.1c-0.1-0.3-0.2-0.5-0.3-0.8-0.1-0.3-0.2-0.5-0.3-0.8 0 0 0-0.1-0.1-0.1 0 0 0-0.1-0.1-0.1-0.1-0.2-0.1-0.3-0.2-0.5-0.1-0.3-0.2-0.5-0.4-0.8-0.1-0.2-0.2-0.3-0.2-0.5 0 0 0-0.1-0.1-0.1 0 0 0-0.1-0.1-0.1-0.2-0.3-0.3-0.6-0.5-1-0.1-0.1-0.2-0.3-0.2-0.4l-0.3-0.6c-0.1-0.2-0.2-0.3-0.3-0.5-0.1-0.2-0.3-0.4-0.4-0.6-0.2-0.3-0.3-0.5-0.5-0.8-0.1-0.1-0.1-0.2-0.2-0.3l-0.6-0.9c-0.1-0.1-0.2-0.2-0.3-0.4l-0.1-0.1c-0.2-0.3-0.5-0.6-0.7-0.9-0.1-0.2-0.3-0.4-0.5-0.6l-0.1-0.1s0-0.1-0.1-0.1c-0.2-0.2-0.4-0.5-0.6-0.7-0.2-0.2-0.4-0.5-0.6-0.7l-0.1-0.1-111-116.7-17.4 10.3 111 116.7c0.5 0.5 1 1 1.4 1.6l0.1 0.1c0.4 0.5 0.8 1 1.2 1.6 0.1 0.1 0.2 0.3 0.3 0.4 0.3 0.4 0.6 0.8 0.8 1.2 0.2 0.3 0.3 0.5 0.5 0.8 0.2 0.3 0.4 0.7 0.6 1l0.3 0.6c0.3 0.5 0.6 1 0.8 1.5 0 0 0 0.1 0.1 0.1 0.3 0.6 0.6 1.2 0.8 1.8 0 0 0 0.1 0.1 0.1 0.3 0.6 0.5 1.2 0.7 1.8v0.1c0.2 0.6 0.4 1.2 0.6 1.7 0 0.1 0 0.1 0.1 0.2 0.2 0.6 0.3 1.2 0.5 1.8v0.1l0.3 1.8v0.1c0.1 0.6 0.2 1.1 0.2 1.7v0.2c0 0.6 0.1 1.1 0.1 1.7 0 0.6 0 1.1-0.1 1.6v0.1c0 0.5-0.1 1-0.2 1.4v0.2c-0.1 0.5-0.2 0.9-0.3 1.3 0 0.1-0.1 0.2-0.1 0.2-0.1 0.4-0.3 0.9-0.5 1.3s-0.4 0.8-0.6 1.1c0 0.1-0.1 0.1-0.1 0.2-0.2 0.3-0.4 0.5-0.6 0.7-0.1 0.1-0.2 0.2-0.2 0.3-0.2 0.2-0.4 0.4-0.6 0.5-0.1 0.1-0.2 0.1-0.3 0.2l-0.9 0.6 17.6-10.1 0.9-0.6c0.1-0.1 0.2-0.1 0.2-0.2 0.2-0.2 0.4-0.3 0.6-0.5 0.1-0.1 0.2-0.2 0.2-0.3 0.2-0.2 0.4-0.5 0.6-0.7 0-0.1 0.1-0.1 0.1-0.2v-0.1c0.2-0.3 0.4-0.7 0.6-1.1 0.1-0.3 0.3-0.6 0.4-0.9 0-0.1 0.1-0.3 0.1-0.4 0-0.1 0.1-0.1 0.1-0.2s0.1-0.1 0.1-0.2c0.1-0.3 0.1-0.5 0.2-0.8 0-0.1 0-0.2 0.1-0.3v-0.2c0-0.1 0-0.2 0.1-0.3 0-0.2 0.1-0.5 0.1-0.7v-0.4-0.1-0.2-0.7c0.1-0.1 0.1-0.4 0.1-0.7 0 0.1 0 0.1 0 0 0 0.1 0 0 0 0z" fill="#f4ea2a" /><path d="M440 462.8v-0.7-0.4-0.1-0.2c0-0.3-0.1-0.5-0.1-0.8 0-0.3-0.1-0.5-0.1-0.8 0-0.2-0.1-0.5-0.1-0.7-0.1-0.3-0.1-0.5-0.2-0.8 0-0.1 0-0.2-0.1-0.3v-0.2c0-0.1-0.1-0.2-0.1-0.3-0.1-0.3-0.1-0.5-0.2-0.8-0.1-0.2-0.1-0.4-0.2-0.6v-0.1-0.1c-0.1-0.3-0.2-0.5-0.3-0.8-0.1-0.3-0.2-0.5-0.3-0.8 0-0.1 0-0.1-0.1-0.2v-0.1c-0.1-0.2-0.1-0.3-0.2-0.5-0.1-0.3-0.2-0.5-0.3-0.8-0.1-0.2-0.2-0.4-0.2-0.6v-0.1-0.1c-0.1-0.3-0.2-0.5-0.3-0.8-0.1-0.3-0.3-0.6-0.4-0.8 0 0 0-0.1-0.1-0.1 0-0.1-0.1-0.1-0.1-0.2l-0.3-0.6c-0.1-0.3-0.3-0.5-0.4-0.8-0.1-0.1-0.2-0.3-0.2-0.4 0-0.1-0.1-0.1-0.1-0.2-0.1-0.2-0.3-0.4-0.4-0.7-0.2-0.3-0.4-0.7-0.6-1 0-0.1-0.1-0.1-0.1-0.2-0.3-0.4-0.6-0.9-0.9-1.3l-0.1-0.1c-0.2-0.3-0.5-0.6-0.7-0.9-0.2-0.2-0.4-0.4-0.5-0.7-0.2-0.2-0.4-0.5-0.6-0.7-0.2-0.2-0.4-0.4-0.6-0.7l-0.1-0.1-0.1-0.1-0.5-0.5c-0.2-0.2-0.4-0.4-0.7-0.6l-0.2-0.2c-0.1 0-0.1-0.1-0.2-0.1-0.1-0.1-0.2-0.2-0.4-0.3-0.2-0.2-0.5-0.4-0.7-0.6-0.1-0.1-0.2-0.2-0.3-0.2-0.1 0-0.1-0.1-0.2-0.1-0.1-0.1-0.2-0.1-0.2-0.2-0.2-0.2-0.5-0.3-0.7-0.5-0.2-0.1-0.3-0.2-0.5-0.3 0 0-0.1 0-0.1-0.1 0 0-0.1 0-0.1-0.1-0.2-0.1-0.4-0.3-0.7-0.4-0.2-0.1-0.4-0.3-0.7-0.4-0.1 0-0.1-0.1-0.2-0.1-0.2-0.1-0.3-0.2-0.5-0.3l-0.6-0.3c-0.1-0.1-0.3-0.1-0.4-0.2h-0.1s-0.1 0-0.1-0.1l-0.6-0.3c-0.2-0.1-0.4-0.2-0.6-0.2h-0.1-0.1c-0.1 0-0.3-0.1-0.4-0.1-0.2-0.1-0.4-0.1-0.6-0.2-0.1 0-0.2 0-0.3-0.1H419.8c-0.2 0-0.5-0.1-0.7-0.1h-0.4-0.1H417.1c-0.3 0-0.6 0.1-0.9 0.1-0.1 0-0.2 0-0.2 0.1-0.3 0.1-0.6 0.1-0.8 0.2h-0.1c-0.4 0.2-0.8 0.3-1.2 0.6L396.3 446l1.2-0.6 0.9-0.3c0.1 0 0.2-0.1 0.2-0.1 0.4-0.1 0.8-0.1 1.2-0.1h1.5c0.4 0 0.9 0.1 1.3 0.2h0.1c0.5 0.1 0.9 0.2 1.4 0.4h0.1l1.5 0.6h0.1c0.5 0.2 1 0.5 1.6 0.8 0.5 0.3 1.1 0.6 1.6 1 0 0 0.1 0 0.1 0.1 0.5 0.3 1 0.7 1.4 1.1 0.1 0 0.1 0.1 0.2 0.1 0.5 0.4 0.9 0.8 1.3 1.2 0.1 0 0.1 0.1 0.2 0.1 0.4 0.4 0.9 0.8 1.3 1.3l0.1 0.1c0.5 0.5 0.9 1 1.3 1.5s0.9 1 1.3 1.6l0.1 0.1c0.3 0.5 0.7 0.9 1 1.4 0.2 0.3 0.4 0.7 0.6 1 0.2 0.3 0.4 0.6 0.5 0.8 0.1 0.1 0.2 0.3 0.2 0.4 0.3 0.5 0.5 1 0.8 1.4 0 0.1 0.1 0.1 0.1 0.2l0.9 1.8v0.1c0.3 0.6 0.5 1.2 0.7 1.8v0.1l0.6 1.8v0.1c0.2 0.6 0.3 1.2 0.5 1.8v0.2c0.1 0.6 0.3 1.2 0.4 1.8 0.1 0.6 0.2 1.2 0.2 1.8v0.1c0 0.6 0.1 1.2 0.1 1.8l-0.9 136.7 17.6-10.1 0.4-136.6v-0.7z" fill="#FFDEDE" /><path d="M406.7 446.7c8.7 4.9 15.7 17 15.7 26.8l-0.4 136.7 111 116.7c8 8.4 11.7 21 8.3 28.1-2.6 5.3-8.4 6.1-14.6 2.6-2-1.2-4.1-2.8-6.1-4.9l-119.8-126c-6-5.9-10.3-15-10.3-22.6l0.4-148.5c0-9.8 7.1-13.8 15.8-8.9z" fill="#FFFFFF" /></svg>