<?xml version="1.0" encoding="utf-8"?>
<!-- Generator: Adobe Illustrator 16.0.0, SVG Export Plug-In . SVG Version: 6.00 Build 0)  -->
<!DOCTYPE svg PUBLIC "-//W3C//DTD SVG 1.1//EN" "http://www.w3.org/Graphics/SVG/1.1/DTD/svg11.dtd">
<svg version="1.1" id="图层_1" xmlns="http://www.w3.org/2000/svg" xmlns:xlink="http://www.w3.org/1999/xlink" x="0px" y="0px"
	 width="200px" height="200px" viewBox="0 0 200 200" enable-background="new 0 0 200 200" xml:space="preserve">
<path fill="#3389D4" d="M189.213,99.374l-41.34-41.354v30.967H132.82h-1.754H71.973v20.78h59.093h1.754h15.053v30.946
	L189.213,99.374z"/>
<path fill="#3389D4" d="M112.967,152.653c0,2.573-2.094,4.673-4.674,4.673H24.8c-2.58,0-4.673-2.1-4.673-4.673V47.347
	c0-2.573,2.094-4.673,4.673-4.673h83.493c2.58,0,4.674,2.1,4.674,4.673V66.72h9.34V47.347c0-7.727-6.287-14.013-14.014-14.013H24.8
	c-7.727,0-14.013,6.287-14.013,14.013v105.307c0,7.727,6.287,14.013,14.013,14.013h83.493c7.727,0,14.014-6.286,14.014-14.013
	v-19.374h-9.34V152.653z"/>
</svg>
