<?xml version="1.0" encoding="utf-8"?>
<!-- Generator: Adobe Illustrator 16.0.0, SVG Export Plug-In . SVG Version: 6.00 Build 0)  -->
<!DOCTYPE svg PUBLIC "-//W3C//DTD SVG 1.1//EN" "http://www.w3.org/Graphics/SVG/1.1/DTD/svg11.dtd">
<svg version="1.1" id="图层_1" xmlns="http://www.w3.org/2000/svg" xmlns:xlink="http://www.w3.org/1999/xlink" x="0px" y="0px"
	 width="200px" height="200px" viewBox="0 0 200 200" enable-background="new 0 0 200 200" xml:space="preserve">
<path fill="#409EFF" d="M181.797,83.32l-69.18-64.512c-3.496-3.984-8.555-6.27-13.906-6.289c-5.273,0-10.313,2.266-13.672,6.035
	L18.398,83.262c-3.32,3.398-4.277,8.34-2.441,12.734c1.836,4.375,6.113,7.129,10.859,7.129h5.996v65.781
	c0,10.215,8.164,18.496,18.359,18.496h28.613c3.711,0,7.012-2.988,7.012-6.699v-43.75c0-1.855,1.23-3.516,3.086-3.516h20.195
	c1.855,0,3.281,1.66,3.281,3.516v43.75c0,3.711,3.105,6.699,6.816,6.699h28.613c10.215,0,18.555-8.281,18.555-18.496v-65.762h5.977
	c4.746,0,9.004-2.734,10.84-7.109C186.035,91.66,185.098,86.719,181.797,83.32z"/>
</svg>
