<?xml version="1.0" encoding="utf-8"?>
<!-- Generator: Adobe Illustrator 16.0.0, SVG Export Plug-In . SVG Version: 6.00 Build 0)  -->
<!DOCTYPE svg PUBLIC "-//W3C//DTD SVG 1.1//EN" "http://www.w3.org/Graphics/SVG/1.1/DTD/svg11.dtd">
<svg version="1.1" id="图层_1" xmlns="http://www.w3.org/2000/svg" xmlns:xlink="http://www.w3.org/1999/xlink" x="0px" y="0px"
	 width="200px" height="200px" viewBox="0 0 200 200" enable-background="new 0 0 200 200" xml:space="preserve">
<path fill="#FF5252" d="M200,178.481c0,12.523-10.153,22.677-22.677,22.677H22.678C10.152,201.158,0,191.005,0,178.481V23.836
	C0,11.311,10.152,1.158,22.678,1.158h154.646C189.847,1.158,200,11.311,200,23.836V178.481z"/>
<path fill="#FFFFFF" d="M56.759,70.304c9.909-13.062,25.567-21.515,43.239-21.515c23.661,0,43.741,15.142,51.209,36.248h12.674
	c-7.9-27.884-33.479-48.331-63.886-48.331c-21.865,0-41.191,10.604-53.285,26.902l-13.169-8.777v42.285L69.79,78.991L56.759,70.304z
	 M130.203,127.321l13.032,8.692c-9.909,13.061-25.566,21.515-43.237,21.515c-23.664,0-43.738-15.144-51.209-36.249H36.11
	c7.899,27.885,33.476,48.331,63.886,48.331c21.863,0,41.189-10.604,53.281-26.902l13.171,8.776v-42.286L130.203,127.321z
	 M118.121,85.034H81.875c-3.336,0-6.041,2.705-6.041,6.042c0,3.336,2.705,6.041,6.041,6.041h36.249
	c3.337-0.128,5.937-2.938,5.808-6.275C123.81,87.685,121.278,85.154,118.121,85.034L118.121,85.034z M118.121,109.198H81.875
	c-3.336,0-6.041,2.706-6.041,6.042c0,3.337,2.705,6.042,6.041,6.042h36.249c3.337-0.001,6.04-2.706,6.04-6.043
	C124.163,111.902,121.457,109.198,118.121,109.198L118.121,109.198z"/>
</svg>
