<?xml version="1.0" encoding="utf-8"?>
<!-- Generator: Adobe Illustrator 16.0.0, SVG Export Plug-In . SVG Version: 6.00 Build 0)  -->
<!DOCTYPE svg PUBLIC "-//W3C//DTD SVG 1.1//EN" "http://www.w3.org/Graphics/SVG/1.1/DTD/svg11.dtd">
<svg version="1.1" id="图层_1" xmlns="http://www.w3.org/2000/svg" xmlns:xlink="http://www.w3.org/1999/xlink" x="0px" y="0px"
	 width="200px" height="200px" viewBox="0 0 200 200" enable-background="new 0 0 200 200" xml:space="preserve">
<path fill="#14CED0" d="M200,177.322C200,189.848,189.848,200,177.322,200H22.678C10.152,200,0,189.848,0,177.322V22.678
	C0,10.152,10.152,0,22.678,0h154.646C189.848,0,200,10.152,200,22.678V177.322z"/>
<path fill="#FFFFFF" d="M78.834,56.636l37.168,101.699c1.549,4.13,7.228,4.646,9.293,0.516l29.425-53.688h17.552
	c3.098,0,5.163-2.064,5.163-5.162s-2.065-5.162-5.163-5.162h-20.649c-2.064,0-3.613,1.032-4.646,2.581l-25.296,46.978L83.997,41.666
	c-1.548-4.13-7.743-4.646-9.808-0.516L50.441,94.838H27.727c-3.097,0-5.162,2.064-5.162,5.162s2.065,5.162,5.162,5.162h25.812
	c2.065,0,3.613-1.032,4.646-3.098L78.834,56.636z"/>
</svg>
