<?xml version="1.0" encoding="utf-8"?>
<!-- Generator: Adobe Illustrator 16.0.0, SVG Export Plug-In . SVG Version: 6.00 Build 0)  -->
<!DOCTYPE svg PUBLIC "-//W3C//DTD SVG 1.1//EN" "http://www.w3.org/Graphics/SVG/1.1/DTD/svg11.dtd">
<svg version="1.1" id="图层_1" xmlns="http://www.w3.org/2000/svg" xmlns:xlink="http://www.w3.org/1999/xlink" x="0px" y="0px"
	 width="200px" height="200px" viewBox="0 0 200 200" enable-background="new 0 0 200 200" xml:space="preserve">
<path fill="#1382FF" d="M200,177.323C200,189.847,189.847,200,177.323,200H22.678C10.152,200,0,189.847,0,177.323V22.678
	C0,10.152,10.152,0,22.678,0h154.646C189.847,0,200,10.152,200,22.678V177.323z"/>
<path fill="#FFFFFF" d="M98.876,94.875c-0.327,0-0.656,0.017-0.986,0.05l-49.236,4.881c-4.344,0.431-7.889,3.63-8.73,7.878
	c-0.84,4.246,1.225,8.537,5.083,10.563l9.08,4.766l-18.833,18.673c-1.857,1.84-2.899,4.336-2.899,6.938
	c0,2.604,1.043,5.101,2.899,6.941l12.309,12.203c1.933,1.917,4.467,2.874,7,2.874c2.533,0,5.067-0.957,7-2.874l18.833-18.671
	l4.807,9.001c1.739,3.256,5.134,5.224,8.747,5.224c0.632,0,1.27-0.06,1.907-0.184c4.284-0.832,7.512-4.349,7.945-8.655l4.925-48.816
	c0.295-2.929-0.75-5.835-2.85-7.917C104.012,95.901,101.488,94.875,98.876,94.875L98.876,94.875z M93.951,153.507L82.874,132.76
	l-28.312,28.068l-12.31-12.204l28.311-28.068l-20.925-10.983l49.236-4.881L93.951,153.507L93.951,153.507z M103.605,63.808
	c2.733,0,4.949-2.196,4.949-4.906V34.263c0-2.709-2.216-4.907-4.949-4.907c-2.732,0-4.95,2.197-4.95,4.907v24.639
	C98.655,61.611,100.873,63.808,103.605,63.808L103.605,63.808z M132.061,75.494c1.267,0,2.532-0.48,3.501-1.438l17.571-17.421
	c1.932-1.915,1.932-5.024,0-6.939c-1.934-1.917-5.066-1.917-7.001,0l-17.569,17.42c-1.936,1.917-1.936,5.024,0,6.94
	C129.527,75.015,130.794,75.494,132.061,75.494L132.061,75.494z M168.696,93.89h-24.85c-2.735,0-4.95,2.197-4.95,4.909
	c0,2.709,2.215,4.907,4.95,4.907h24.85c2.734,0,4.95-2.197,4.95-4.907C173.646,96.087,171.43,93.89,168.696,93.89L168.696,93.89z
	 M135.56,123.539c-1.933-1.917-5.065-1.917-6.998,0c-1.935,1.916-1.935,5.024,0,6.94l17.57,17.42c0.967,0.958,2.233,1.438,3.5,1.438
	c1.266,0,2.533-0.479,3.501-1.438c1.932-1.915,1.932-5.024,0-6.939L135.56,123.539L135.56,123.539z M71.651,74.056
	c0.966,0.958,2.233,1.438,3.5,1.438s2.533-0.479,3.499-1.438c1.934-1.916,1.934-5.023,0-6.94l-17.571-17.42
	c-1.933-1.917-5.066-1.917-7,0c-1.933,1.915-1.933,5.024,0,6.939L71.651,74.056L71.651,74.056z"/>
</svg>
