<?xml version="1.0" encoding="utf-8"?>
<!-- Generator: Adobe Illustrator 16.0.0, SVG Export Plug-In . SVG Version: 6.00 Build 0)  -->
<!DOCTYPE svg PUBLIC "-//W3C//DTD SVG 1.1//EN" "http://www.w3.org/Graphics/SVG/1.1/DTD/svg11.dtd">
<svg version="1.1" id="图层_1" xmlns="http://www.w3.org/2000/svg" xmlns:xlink="http://www.w3.org/1999/xlink" x="0px" y="0px"
	 width="200px" height="200px" viewBox="0 0 200 200" enable-background="new 0 0 200 200" xml:space="preserve">
<path fill="#FF5252" d="M35.687,52.291c14.739-19.427,38.028-32,64.313-32c35.193,0,65.059,22.522,76.168,53.914h18.849
	C183.268,32.732,145.222,2.32,99.996,2.32c-32.521,0-61.266,15.771-79.255,40.013L1.155,29.279v62.893l53.914-26.959L35.687,52.291z
	 M144.926,137.098l19.383,12.927c-14.738,19.427-38.028,32-64.309,32c-35.197,0-65.054-22.522-76.167-53.914H4.975
	c11.749,41.474,49.791,71.886,95.021,71.886c32.52,0,61.266-15.771,79.25-40.014l19.59,13.055v-62.895L144.926,137.098z
	 M126.955,74.201h-53.91c-4.963,0-8.986,4.023-8.986,8.986c0,4.962,4.023,8.985,8.986,8.985h53.914
	c4.963-0.191,8.83-4.37,8.639-9.333C135.416,78.144,131.65,74.38,126.955,74.201L126.955,74.201z M126.955,110.143h-53.91
	c-4.963,0-8.986,4.023-8.986,8.986s4.023,8.986,8.986,8.986h53.914c4.963-0.002,8.984-4.025,8.984-8.988
	C135.941,114.164,131.918,110.143,126.955,110.143L126.955,110.143z"/>
</svg>
