<?xml version="1.0" encoding="utf-8"?>
<!-- Generator: Adobe Illustrator 16.0.0, SVG Export Plug-In . SVG Version: 6.00 Build 0)  -->
<!DOCTYPE svg PUBLIC "-//W3C//DTD SVG 1.1//EN" "http://www.w3.org/Graphics/SVG/1.1/DTD/svg11.dtd">
<svg version="1.1" id="图层_1" xmlns="http://www.w3.org/2000/svg" xmlns:xlink="http://www.w3.org/1999/xlink" x="0px" y="0px"
	 width="200px" height="200px" viewBox="0 0 200 200" enable-background="new 0 0 200 200" xml:space="preserve">
<path fill="#14CED0" d="M74.375,47.5l45,123.125c1.875,5,8.75,5.625,11.25,0.625l35.625-65h21.25c3.75,0,6.25-2.5,6.25-6.25
	s-2.5-6.25-6.25-6.25h-25c-2.5,0-4.375,1.25-5.625,3.125L126.25,153.75L80.625,29.375c-1.875-5-9.375-5.625-11.875-0.625L40,93.75
	H12.5c-3.75,0-6.25,2.5-6.25,6.25s2.5,6.25,6.25,6.25h31.25c2.5,0,4.375-1.25,5.625-3.75L74.375,47.5z"/>
</svg>
