<?xml version="1.0" encoding="utf-8"?>
<!-- Generator: Adobe Illustrator 16.0.0, SVG Export Plug-In . SVG Version: 6.00 Build 0)  -->
<!DOCTYPE svg PUBLIC "-//W3C//DTD SVG 1.1//EN" "http://www.w3.org/Graphics/SVG/1.1/DTD/svg11.dtd">
<svg version="1.1" id="图层_1" xmlns="http://www.w3.org/2000/svg" xmlns:xlink="http://www.w3.org/1999/xlink" x="0px" y="0px"
	 width="200px" height="200px" viewBox="0 0 200 200" enable-background="new 0 0 200 200" xml:space="preserve">
<path fill="#1382FF" d="M94.825,93.569c-0.41,0-0.823,0.021-1.237,0.063l-61.782,6.125c-5.45,0.541-9.899,4.556-10.954,9.885
	c-1.054,5.328,1.537,10.714,6.378,13.255l11.393,5.979l-23.631,23.43c-2.33,2.31-3.638,5.442-3.638,8.708s1.309,6.399,3.638,8.708
	l15.445,15.313c2.426,2.406,5.605,3.608,8.784,3.608s6.358-1.202,8.784-3.608l23.631-23.428l6.031,11.296
	c2.182,4.085,6.443,6.554,10.976,6.554c0.793,0,1.594-0.074,2.393-0.23c5.375-1.045,9.426-5.457,9.97-10.861l6.18-61.254
	c0.37-3.676-0.942-7.323-3.576-9.935C101.269,94.857,98.103,93.569,94.825,93.569L94.825,93.569z M88.645,167.141l-13.9-26.034
	L39.22,176.327l-15.446-15.313l35.524-35.221l-26.257-13.781l61.782-6.126L88.645,167.141L88.645,167.141z M100.76,54.587
	c3.43,0,6.211-2.756,6.211-6.157V17.514c0-3.4-2.781-6.157-6.211-6.157s-6.211,2.757-6.211,6.157V48.43
	C94.548,51.83,97.33,54.587,100.76,54.587L100.76,54.587z M136.465,69.25c1.59,0,3.178-0.602,4.392-1.804l22.049-21.86
	c2.425-2.403,2.425-6.304,0-8.707c-2.426-2.406-6.356-2.406-8.784,0l-22.047,21.859c-2.428,2.404-2.428,6.304,0,8.708
	C133.287,68.649,134.876,69.25,136.465,69.25L136.465,69.25z M182.436,92.333h-31.182c-3.432,0-6.212,2.757-6.212,6.159
	c0,3.4,2.78,6.157,6.212,6.157h31.182c3.431,0,6.211-2.757,6.211-6.157C188.646,95.09,185.866,92.333,182.436,92.333L182.436,92.333
	z M140.856,129.537c-2.426-2.406-6.356-2.406-8.782,0c-2.428,2.404-2.428,6.304,0,8.708l22.047,21.859
	c1.214,1.203,2.803,1.804,4.393,1.804c1.588,0,3.178-0.602,4.392-1.804c2.425-2.403,2.425-6.304,0-8.707L140.856,129.537
	L140.856,129.537z M60.664,67.446c1.212,1.203,2.802,1.804,4.391,1.804s3.178-0.601,4.391-1.804c2.426-2.404,2.426-6.304,0-8.708
	L47.397,36.879c-2.426-2.406-6.357-2.406-8.783,0c-2.425,2.403-2.425,6.304,0,8.707L60.664,67.446L60.664,67.446z"/>
</svg>
