<?xml version="1.0" standalone="no"?><!DOCTYPE svg PUBLIC "-//W3C//DTD SVG 1.1//EN" "http://www.w3.org/Graphics/SVG/1.1/DTD/svg11.dtd"><svg t="1554642114126" class="icon" style="" viewBox="0 0 1024 1024" version="1.1" xmlns="http://www.w3.org/2000/svg" p-id="1556" xmlns:xlink="http://www.w3.org/1999/xlink" width="32" height="32"><defs><style type="text/css"></style></defs><path d="M507.449 776.42c-96.711 0-176.356-62.578-204.8-153.6h56.889l-91.022-108.09-85.334 108.09h73.956c28.444 113.777 130.844 193.422 250.31 193.422 102.4 0 187.734-56.89 233.245-142.222l-39.822-17.067C666.738 725.22 592.782 776.42 507.45 776.42z m0-477.867c-102.4 0-187.733 56.889-233.245 142.222l39.823 22.756c34.133-68.267 108.089-119.467 193.422-119.467 102.4 0 193.422 73.956 210.489 170.667H655.36l85.333 108.089 85.334-108.09H757.76c-11.378-125.155-119.467-216.177-250.311-216.177z m392.533-130.845H507.45L376.604 36.864h-256c-45.51 0-85.333 39.822-85.333 91.022v756.622c0 45.512 39.822 85.334 85.333 85.334h779.378c45.511 0 85.334-39.822 85.334-85.334V258.731c0-51.2-39.823-91.023-85.334-91.023z m-17.066 739.556H137.67c-22.755 0-39.822-17.067-39.822-39.822v-722.49c0-22.755 17.067-39.821 39.822-39.821h216.18l119.467 125.155h409.6c22.755 0 39.822 17.067 39.822 39.822v597.334c0 22.755-17.067 39.822-39.822 39.822z" p-id="1557"></path></svg>