<?xml version="1.0" standalone="no"?><!DOCTYPE svg PUBLIC "-//W3C//DTD SVG 1.1//EN" "http://www.w3.org/Graphics/SVG/1.1/DTD/svg11.dtd"><svg t="1554880498933" class="icon" style="" viewBox="0 0 1024 1024" version="1.1" xmlns="http://www.w3.org/2000/svg" p-id="3277" xmlns:xlink="http://www.w3.org/1999/xlink" width="32" height="32"><defs><style type="text/css"></style></defs><path d="M207.644 372.622h170.667c48.356 0 85.333-36.978 85.333-85.333V116.622c0-48.355-36.977-85.333-85.333-85.333H207.644c-48.355 0-85.333 36.978-85.333 85.333V287.29c0 48.355 39.822 85.333 85.333 85.333z m-28.444-256c0-17.066 11.378-28.444 28.444-28.444h170.667c17.067 0 28.445 11.378 28.445 28.444V287.29c0 17.067-11.378 28.444-28.445 28.444H207.644c-17.066 0-28.444-11.377-28.444-28.444V116.622z m671.289 540.445h-204.8c-36.978 0-68.267 31.289-68.267 68.266v204.8c0 36.978 31.29 68.267 68.267 68.267h204.8c36.978 0 68.267-31.289 68.267-68.267v-204.8c0-36.977-31.29-68.266-68.267-68.266z m8.533-182.045H819.2l71.111 122.311 71.111-122.31h-45.51c-19.912-201.956-190.579-358.4-395.379-358.4v56.888c173.511 0 318.578 133.689 338.49 301.511z m-676.978 82.49h39.823L150.756 435.2 79.644 557.511h45.512c19.91 199.111 190.577 355.556 395.377 355.556v-56.89c-173.51 0-318.577-130.844-338.489-298.666z" p-id="3278"></path></svg>