<?xml version="1.0" encoding="utf-8"?>
<!-- Generator: Adobe Illustrator 16.0.0, SVG Export Plug-In . SVG Version: 6.00 Build 0)  -->
<!DOCTYPE svg PUBLIC "-//W3C//DTD SVG 1.1//EN" "http://www.w3.org/Graphics/SVG/1.1/DTD/svg11.dtd">
<svg version="1.1" id="图层_1" xmlns="http://www.w3.org/2000/svg" xmlns:xlink="http://www.w3.org/1999/xlink" x="0px" y="0px"
	 width="200px" height="200px" viewBox="0 0 200 200" enable-background="new 0 0 200 200" xml:space="preserve">
<path fill="#3389D4" d="M100,200C44.863,200,0,155.137,0,100S44.863,0,100,0s100,44.863,100,100S155.137,200,100,200z M100,16.66
	c-45.957,0-83.34,37.383-83.34,83.34s37.383,83.34,83.34,83.34s83.34-37.383,83.34-83.34S145.957,16.66,100,16.66z"/>
<path fill="#3389D4" d="M91.66,137.5c-2.129,0-4.258-0.82-5.898-2.441c-3.262-3.262-3.262-8.535,0-11.777L109.043,100L85.781,76.719
	c-3.262-3.262-3.262-8.535,0-11.777c3.262-3.262,8.535-3.262,11.777,0l29.16,29.16c3.262,3.262,3.262,8.535,0,11.777l-29.16,29.18
	C95.938,136.68,93.789,137.5,91.66,137.5z"/>
</svg>
