<?xml version="1.0" standalone="no"?><!DOCTYPE svg PUBLIC "-//W3C//DTD SVG 1.1//EN" "http://www.w3.org/Graphics/SVG/1.1/DTD/svg11.dtd"><svg t="1554715033663" class="icon" style="" viewBox="0 0 1024 1024" version="1.1" xmlns="http://www.w3.org/2000/svg" p-id="1943" xmlns:xlink="http://www.w3.org/1999/xlink" width="32" height="32"><defs><style type="text/css"></style></defs><path d="M261.877 1.156l58.966 223.53 187.303 67.445-186.532 70.142-56.268 223.916-58.966-223.53-187.688-67.445 186.917-69.757 56.268-224.3z m391.564 64.747l73.225 147.992 141.44 20.426-121.014 75.924-7.322 164.95-73.226-147.993-141.44-20.426 121.014-75.538 7.323-165.335zM283.46 597.75l33.144 93.651 82.86 22.739-77.85 36.227-16.572 98.276-32.759-94.037-82.86-22.353 77.85-36.612 16.187-97.891z m130.65-54.341L524.717 432.8c23.895-23.894 62.82-23.894 86.714 0l167.263 166.878L581.37 797 414.495 629.74c-23.895-23.895-23.895-62.82-0.386-86.33z m402.74 94.808L619.525 835.54 789.1 1005.116c23.895 23.894 62.82 23.894 86.715 0l110.609-110.61c23.894-23.894 23.894-62.82 0-86.714L816.849 638.218z m-379.617-43.55L576.747 734.18 716.26 594.668 576.747 455.154 437.233 594.668z m0 0" p-id="1944"></path></svg>